<?xml version="1.0" standalone="no"?><!DOCTYPE svg PUBLIC "-//W3C//DTD SVG 1.1//EN" "http://www.w3.org/Graphics/SVG/1.1/DTD/svg11.dtd"><svg t="1502183697598" class="icon" style="" viewBox="0 0 1024 1024" version="1.1" xmlns="http://www.w3.org/2000/svg" p-id="1425" xmlns:xlink="http://www.w3.org/1999/xlink" width="200" height="200"><defs><style type="text/css"></style></defs><path d="M759.600191 263.253706c-14.437827-9.465582-33.785477-5.429663-43.25106 8.987698-9.455349 14.427594-5.429663 33.795711 8.987698 43.25106 113.344464 74.322729 172.030052 183.955662 171.714873 221.87939-0.620124 74.14979-152.803151 288.444435-385.216455 288.444435-244.969271 0-385.211339-226.475058-385.211339-288.180422 0-38.473243 58.665121-148.675134 170.804131-222.134193 14.437827-9.455349 18.463514-28.814256 9.018398-43.240827-9.455349-14.427594-28.814256-18.473747-43.240827-9.018398C144.135748 341.236801 64.155159 468.094024 64.155159 537.637913c0 101.133352 178.419576 350.648149 447.679066 350.648149 272.125771 0 446.809255-246.372224 447.684182-350.383112C960.097598 468.957695 879.899044 342.141404 759.600191 263.253706z" p-id="1426"></path><path d="M389.948223 136.356574c-17.253966 0-31.233352 13.980409-31.233352 31.233352l0 30.470989c0 17.253966 13.980409 31.233352 31.233352 31.233352s31.233352-13.980409 31.233352-31.233352l0-30.470989C421.182598 150.336984 407.202189 136.356574 389.948223 136.356574z" p-id="1427"></path><path d="M633.728412 136.356574c-17.253966 0-31.233352 13.980409-31.233352 31.233352l0 30.470989c0 17.253966 13.980409 31.233352 31.233352 31.233352s31.233352-13.980409 31.233352-31.233352l0-30.470989C664.961764 150.336984 650.982378 136.356574 633.728412 136.356574z" p-id="1428"></path><path d="M511.524163 337.555969c43.963281 0 75.105558-30.308283 86.583984-48.223305 9.222035-14.396895 5.042853-33.348526-9.242502-42.753733-14.275121-9.42465-33.57263-5.409197-43.159986 8.744151-0.132006 0.203638-13.614066 19.765159-34.18252 19.765159-19.989263 0-32.43369-18.117636-33.267685-19.378349-9.181103-14.407128-28.285207-18.819624-42.834574-9.750061-14.650675 9.099239-19.155269 28.356838-10.044774 43.007513C436.591543 307.014372 467.347011 337.555969 511.524163 337.555969z" p-id="1429"></path><path d="M511.838318 733.499743c99.893104 0 181.170223-81.277118 181.170223-181.170223s-81.277118-181.170223-181.170223-181.170223-181.170223 81.277118-181.170223 181.170223S411.945213 733.499743 511.838318 733.499743zM511.838318 433.627025c65.456804 0 118.702496 53.245691 118.702496 118.702496s-53.245691 118.702496-118.702496 118.702496-118.702496-53.245691-118.702496-118.702496S446.381513 433.627025 511.838318 433.627025z" p-id="1430"></path></svg>